<?xml version="1.0" encoding="UTF-8" standalone="no"?>
<!DOCTYPE svg PUBLIC "-//W3C//DTD SVG 1.1//EN" "http://www.w3.org/Graphics/SVG/1.1/DTD/svg11.dtd">
<svg width="100%" height="100%" viewBox="0 0 200 200" version="1.1" xmlns="http://www.w3.org/2000/svg" xmlns:xlink="http://www.w3.org/1999/xlink" xml:space="preserve" style="fill-rule:evenodd;clip-rule:evenodd;stroke-linejoin:round;stroke-miterlimit:1.41421;">
    <g transform="matrix(1.80513,0,0,1.80513,-710.603,-2839.08)">
        <path d="M458.483,1573.59C452.244,1572.52 445.866,1572.52 439.626,1573.59C438.512,1579.29 437.421,1584.99 436.354,1590.7C424.686,1594.65 415.524,1603.81 411.571,1615.48C405.865,1616.55 400.163,1617.64 394.466,1618.75C393.388,1624.99 393.388,1631.37 394.466,1637.61C400.163,1638.73 405.865,1639.82 411.571,1640.88C415.524,1652.55 424.686,1661.71 436.354,1665.67C437.421,1671.37 438.512,1677.07 439.626,1682.77C445.866,1683.85 452.244,1683.85 458.483,1682.77C459.598,1677.07 460.689,1671.37 461.755,1665.67C473.424,1661.71 482.585,1652.55 486.539,1640.88C492.245,1639.82 497.947,1638.73 503.644,1637.61C504.722,1631.37 504.722,1624.99 503.644,1618.75C497.947,1617.64 492.245,1616.55 486.539,1615.48C482.585,1603.81 473.424,1594.65 461.755,1590.7C460.689,1584.99 459.598,1579.29 458.483,1573.59ZM449.055,1597.95C465.742,1597.95 479.29,1611.5 479.29,1628.18C479.29,1644.87 465.742,1658.42 449.055,1658.42C432.368,1658.42 418.82,1644.87 418.82,1628.18C418.82,1611.5 432.368,1597.95 449.055,1597.95Z" style="fill:rgb(248,213,0);"/>
    </g>
</svg>
