<?xml version="1.0" encoding="UTF-8" standalone="no"?>
<!DOCTYPE svg PUBLIC "-//W3C//DTD SVG 1.1//EN" "http://www.w3.org/Graphics/SVG/1.1/DTD/svg11.dtd">
<svg width="100%" height="100%" viewBox="0 0 200 200" version="1.1" xmlns="http://www.w3.org/2000/svg" xmlns:xlink="http://www.w3.org/1999/xlink" xml:space="preserve" style="fill-rule:evenodd;clip-rule:evenodd;stroke-linejoin:round;stroke-miterlimit:1.41421;">
    <g transform="matrix(1.19567,0,0,1.19567,-251.284,-2068.57)">
        <path d="M293.796,1730.05C339.956,1730.05 377.431,1767.53 377.431,1813.68C377.431,1859.84 339.956,1897.32 293.796,1897.32C247.637,1897.32 210.161,1859.84 210.161,1813.68C210.161,1767.53 247.637,1730.05 293.796,1730.05ZM293.796,1771.87C316.876,1771.87 335.614,1790.61 335.614,1813.68C335.614,1836.76 316.876,1855.5 293.796,1855.5C270.717,1855.5 251.979,1836.76 251.979,1813.68C251.979,1790.61 270.717,1771.87 293.796,1771.87Z" style="fill:rgb(44,42,41);"/>
    </g>
</svg>
