<?xml version="1.0" encoding="UTF-8" standalone="no"?>
<!DOCTYPE svg PUBLIC "-//W3C//DTD SVG 1.1//EN" "http://www.w3.org/Graphics/SVG/1.1/DTD/svg11.dtd">
<svg width="100%" height="100%" viewBox="0 0 200 200" version="1.1" xmlns="http://www.w3.org/2000/svg" xmlns:xlink="http://www.w3.org/1999/xlink" xml:space="preserve" style="fill-rule:evenodd;clip-rule:evenodd;stroke-linejoin:round;stroke-miterlimit:1.41421;">
    <g transform="matrix(1.02865,0,0,1.02865,-5.73077,-5.16071)">
        <path d="M115.475,5.849C107.052,4.74 98.52,4.74 90.097,5.849L87.69,16.619C77.703,18.38 68.101,21.875 59.319,26.946L50.552,20.242C43.387,24.806 36.851,30.291 31.112,36.554L36.191,46.352C29.673,54.12 24.564,62.969 21.096,72.499L10.071,72.998C7.516,81.101 6.034,89.503 5.664,97.991L15.853,102.231C15.853,112.372 17.627,122.435 21.096,131.964L12.971,139.434C16.222,147.283 20.488,154.672 25.66,161.412L36.191,158.111C42.71,165.879 50.537,172.447 59.319,177.517L57.897,188.462C65.433,192.385 73.45,195.303 81.745,197.141L87.69,187.843C97.677,189.604 107.894,189.604 117.881,187.843L123.827,197.141C132.121,195.303 140.138,192.385 147.674,188.462L146.252,177.517C155.034,172.447 162.861,165.879 169.38,158.111L179.911,161.412C185.083,154.672 189.349,147.283 192.6,139.434L184.476,131.964C187.944,122.435 189.718,112.372 189.718,102.231L199.907,97.991C199.537,89.503 198.055,81.101 195.501,72.998L184.476,72.499C181.007,62.969 175.898,54.12 169.38,46.352L174.46,36.554C168.72,30.291 162.184,24.806 155.019,20.242L146.252,26.946C137.47,21.875 127.868,18.38 117.881,16.619L115.475,5.849ZM102.786,33.189C140.891,33.189 171.828,64.126 171.828,102.231C171.828,140.337 140.891,171.274 102.786,171.274C64.68,171.274 33.743,140.337 33.743,102.231C33.743,64.126 64.68,33.189 102.786,33.189Z" style="fill:rgb(44,42,41);"/>
    </g>
</svg>
