<?xml version="1.0" encoding="UTF-8" standalone="no"?>
<!DOCTYPE svg PUBLIC "-//W3C//DTD SVG 1.1//EN" "http://www.w3.org/Graphics/SVG/1.1/DTD/svg11.dtd">
<svg width="100%" height="100%" viewBox="0 0 200 200" version="1.1" xmlns="http://www.w3.org/2000/svg" xmlns:xlink="http://www.w3.org/1999/xlink" xml:space="preserve" style="fill-rule:evenodd;clip-rule:evenodd;stroke-linejoin:round;stroke-miterlimit:1.41421;">
    <g transform="matrix(2.56993,0,0,2.56993,-2519.18,-84.5863)">
        <path d="M1024.23,33.247C1020.86,32.803 1017.45,32.803 1014.07,33.247L1012.48,39.03C1009.23,39.691 1006.09,40.832 1003.18,42.415L998.241,39.009C995.372,40.837 992.755,43.032 990.457,45.54L992.954,50.995C990.889,53.591 989.221,56.479 988.005,59.566L982.033,60.131C981.011,63.375 980.417,66.739 980.269,70.137L985.687,72.711C985.774,76.027 986.353,79.312 987.406,82.457L983.195,86.729C984.496,89.872 986.204,92.83 988.275,95.529L994.08,94.018C996.278,96.502 998.833,98.646 1001.66,100.379L1001.18,106.358C1004.2,107.929 1007.41,109.097 1010.73,109.833L1014.21,104.944C1017.49,105.435 1020.82,105.435 1024.1,104.944L1027.58,109.833C1030.9,109.097 1034.11,107.929 1037.12,106.358L1036.64,100.379C1039.47,98.646 1042.03,96.502 1044.23,94.018L1050.03,95.529C1052.1,92.83 1053.81,89.872 1055.11,86.729L1050.9,82.457C1051.95,79.312 1052.53,76.027 1052.62,72.711L1058.04,70.137C1057.89,66.739 1057.3,63.375 1056.27,60.131L1050.3,59.566C1049.09,56.479 1047.42,53.591 1045.35,50.995L1047.85,45.54C1045.55,43.032 1042.93,40.837 1040.07,39.009L1035.13,42.415C1032.21,40.832 1029.08,39.691 1025.83,39.03L1024.23,33.247ZM1019.15,55.177C1028.35,55.177 1035.81,62.641 1035.81,71.835C1035.81,81.029 1028.35,88.493 1019.15,88.493C1009.96,88.493 1002.5,81.029 1002.5,71.835C1002.5,62.641 1009.96,55.177 1019.15,55.177Z" style="fill:rgb(44,42,41);"/>
    </g>
</svg>
