<?xml version="1.0" encoding="UTF-8" standalone="no"?>
<!DOCTYPE svg PUBLIC "-//W3C//DTD SVG 1.1//EN" "http://www.w3.org/Graphics/SVG/1.1/DTD/svg11.dtd">
<svg width="100%" height="100%" viewBox="0 0 200 200" version="1.1" xmlns="http://www.w3.org/2000/svg" xmlns:xlink="http://www.w3.org/1999/xlink" xml:space="preserve" style="fill-rule:evenodd;clip-rule:evenodd;stroke-linecap:round;stroke-linejoin:round;stroke-miterlimit:1.5;">
    <path d="M182.611,43.52C182.611,29.098 170.902,17.389 156.48,17.389L43.52,17.389C29.098,17.389 17.389,29.098 17.389,43.52L17.389,156.48C17.389,170.902 29.098,182.611 43.52,182.611L156.48,182.611C170.902,182.611 182.611,170.902 182.611,156.48L182.611,43.52Z" style="fill:none;stroke:rgb(63,40,40);stroke-width:12px;"/>
    <clipPath id="_clip1">
        <rect x="17.389" y="126.94" width="165.221" height="55.671"/>
    </clipPath>
    <g clip-path="url(#_clip1)">
        <path d="M182.611,43.52C182.611,29.098 170.902,17.389 156.48,17.389L43.52,17.389C29.098,17.389 17.389,29.098 17.389,43.52L17.389,156.48C17.389,170.902 29.098,182.611 43.52,182.611L156.48,182.611C170.902,182.611 182.611,170.902 182.611,156.48L182.611,43.52Z" style="fill:rgb(244,209,104);stroke:rgb(63,40,40);stroke-width:12px;"/>
    </g>
    <clipPath id="_clip2">
        <rect x="17.389" y="71.533" width="165.221" height="56.142"/>
    </clipPath>
    <g clip-path="url(#_clip2)">
        <path d="M182.611,43.52C182.611,29.098 170.902,17.389 156.48,17.389L43.52,17.389C29.098,17.389 17.389,29.098 17.389,43.52L17.389,156.48C17.389,170.902 29.098,182.611 43.52,182.611L156.48,182.611C170.902,182.611 182.611,170.902 182.611,156.48L182.611,43.52Z" style="fill:rgb(209,46,40);stroke:rgb(63,40,40);stroke-width:12px;"/>
    </g>
    <clipPath id="_clip3">
        <rect x="17.389" y="17.389" width="165.221" height="54.571"/>
    </clipPath>
    <g clip-path="url(#_clip3)">
        <path d="M182.611,43.52C182.611,29.098 170.902,17.389 156.48,17.389L43.52,17.389C29.098,17.389 17.389,29.098 17.389,43.52L17.389,156.48C17.389,170.902 29.098,182.611 43.52,182.611L156.48,182.611C170.902,182.611 182.611,170.902 182.611,156.48L182.611,43.52Z" style="fill:rgb(44,42,41);stroke:rgb(63,40,40);stroke-width:12px;"/>
    </g>
</svg>
